<?xml version="1.0" standalone="no"?>
<!DOCTYPE svg PUBLIC "-//W3C//DTD SVG 20010904//EN"
 "http://www.w3.org/TR/2001/REC-SVG-20010904/DTD/svg10.dtd">
<svg version="1.0" xmlns="http://www.w3.org/2000/svg"
 width="360.000000pt" height="212.000000pt" viewBox="0 0 360.000000 212.000000"
 preserveAspectRatio="xMidYMid meet">
<metadata>
Created by potrace 1.13, written by Peter Selinger 2001-2015
</metadata>
<g transform="translate(0.000000,212.000000) scale(0.100000,-0.100000)"
fill="#000000" stroke="none">
<path d="M32 1373 l3 -748 1500 0 c1420 0 1500 1 1503 18 3 16 -11 17 -177 17
l-181 0 0 350 0 350 28 -5 c34 -7 99 -25 132 -36 51 -16 90 -21 91 -10 1 6 2
17 3 24 1 9 76 13 334 15 l332 2 0 25 0 25 -332 2 c-258 2 -333 6 -334 16 -1
6 -2 17 -3 23 -1 11 -32 7 -96 -11 -16 -5 -48 -13 -70 -19 -22 -6 -50 -13 -62
-16 l-23 -6 0 346 0 346 169 -2 c93 -1 174 2 180 5 6 4 11 14 11 22 0 12 -201
14 -1505 14 l-1505 0 2 -747z m2406 699 c9 -2 12 -77 12 -337 0 -316 -1 -335
-18 -335 -10 0 -22 4 -28 8 -5 5 -29 15 -54 22 -25 8 -49 16 -55 20 -5 3 -28
12 -50 19 -41 13 -60 20 -105 39 -14 6 -42 16 -62 23 -32 11 -35 15 -27 32 6
10 8 22 4 25 -20 21 -265 42 -265 24 0 -5 26 -26 58 -48 31 -21 59 -41 62 -45
12 -14 86 -59 97 -59 7 0 13 10 13 21 0 19 4 20 36 14 20 -3 44 -10 53 -15 29
-14 65 -28 106 -41 22 -7 45 -16 50 -19 6 -4 30 -13 55 -20 25 -8 54 -20 65
-27 17 -11 17 -13 2 -13 -9 0 -25 -4 -35 -9 -30 -15 -92 -40 -147 -59 -34 -12
-151 -31 -210 -35 -37 -2 -40 -4 -45 -37 -4 -25 -11 -36 -25 -38 -11 -2 -24
-8 -29 -13 -6 -5 -17 -9 -26 -9 -9 0 -25 -9 -35 -20 -17 -18 -17 -20 -1 -26
16 -6 35 0 88 27 28 14 47 11 60 -11 13 -20 33 -27 40 -12 4 9 68 58 128 98
25 17 72 41 105 53 33 13 71 28 85 33 51 21 66 27 88 33 l22 6 0 -340 0 -341
-1190 0 -1190 0 0 704 c0 468 3 705 10 708 11 3 2335 3 2358 0z m192 0 c0 -4
-34 -41 -75 -82 l-75 -74 0 82 0 82 75 0 c41 0 75 -3 75 -8z m8 -152 l-3 -90
-77 -77 -78 -78 0 95 0 95 72 72 c40 40 76 73 81 73 5 0 7 -40 5 -90z m0 -240
l-3 -90 -77 -77 -78 -78 0 95 0 95 72 72 c40 40 76 73 81 73 5 0 7 -40 5 -90z
m0 -240 l-3 -90 -77 -77 -78 -78 0 95 0 95 72 72 c40 40 76 73 81 73 5 0 7
-40 5 -90z m-6 -242 l-4 -93 -74 -75 -74 -75 0 95 0 95 72 72 c40 40 75 73 78
73 3 0 4 -42 2 -92z m0 -240 l-4 -93 -74 -75 -74 -75 0 95 0 95 72 72 c40 40
75 73 78 73 3 0 4 -42 2 -92z m1 -220 l-1 -73 -76 -3 c-42 -2 -76 -1 -76 1 0
6 144 147 150 147 3 0 4 -33 3 -72z"/>
<path d="M742 1840 c-6 -11 -12 -26 -12 -34 0 -20 39 -56 60 -56 39 0 66 70
38 98 -19 19 -72 15 -86 -8z"/>
<path d="M2107 1842 c-33 -36 -8 -92 40 -92 25 0 53 30 53 57 0 46 -62 69 -93
35z"/>
<path d="M1632 1704 c-24 -17 -30 -62 -10 -82 28 -28 98 -1 98 37 0 13 -45 61
-57 61 -5 0 -19 -7 -31 -16z"/>
<path d="M1029 1487 c-23 -18 -30 -44 -19 -72 14 -36 71 -36 94 0 16 24 16 27
-4 55 -23 32 -45 37 -71 17z"/>
<path d="M307 1462 c-33 -36 -8 -92 40 -92 25 0 53 30 53 57 0 46 -62 69 -93
35z"/>
<path d="M1442 1240 c-40 -38 -21 -90 33 -90 35 0 55 20 55 54 0 17 -38 56
-55 56 -6 0 -21 -9 -33 -20z"/>
<path d="M606 1111 c-14 -27 -14 -30 9 -55 29 -31 44 -33 73 -6 25 23 26 29
12 64 -8 21 -16 26 -44 26 -29 0 -38 -5 -50 -29z"/>
<path d="M767 1102 c-34 -38 -8 -92 44 -92 32 0 49 17 49 50 0 52 -60 78 -93
42z"/>
<path d="M1154 905 c-4 -9 -3 -28 0 -43 4 -15 11 -45 16 -67 19 -86 23 -97 37
-102 16 -6 53 24 53 44 0 7 5 13 10 13 6 0 10 5 10 11 0 5 18 37 40 69 39 58
50 90 30 90 -12 0 -79 -90 -80 -107 0 -7 -3 -13 -8 -13 -4 0 -13 -14 -21 -32
l-14 -31 -13 49 c-7 27 -13 60 -14 74 -1 25 -21 60 -34 60 -4 0 -9 -7 -12 -15z"/>
<path d="M187 842 c-20 -22 -22 -63 -5 -80 28 -28 98 -1 98 37 0 16 -46 61
-63 61 -8 0 -21 -8 -30 -18z"/>
<path d="M2110 839 c-15 -27 -6 -61 21 -77 44 -28 95 29 69 77 -15 29 -75 29
-90 0z"/>
<path d="M2818 1930 c-7 -16 -16 -30 -20 -30 -5 0 -8 -5 -8 -11 0 -5 -18 -37
-41 -71 -31 -45 -38 -63 -29 -71 8 -9 18 -4 38 21 23 27 34 32 70 32 34 0 42
-3 42 -19 0 -26 27 -48 42 -33 9 9 9 20 0 45 -7 18 -12 43 -12 55 0 12 -5 42
-12 67 -10 36 -16 45 -34 45 -15 0 -27 -10 -36 -30z m35 -57 c6 -31 5 -33 -23
-33 l-30 0 22 34 c13 19 23 34 24 33 1 -1 4 -17 7 -34z"/>
<path d="M3225 1652 c-15 -10 -40 -97 -52 -184 -4 -29 -2 -38 9 -38 16 0 38
40 38 70 0 17 7 20 41 20 45 0 83 16 74 31 -4 5 -26 9 -51 9 -40 0 -44 2 -44
25 0 24 3 25 54 25 37 0 58 5 67 16 10 13 10 17 -2 25 -17 10 -120 12 -134 1z"/>
<path d="M34 507 c-2 -7 -3 -115 -2 -241 2 -173 6 -230 15 -234 10 -3 13 23
13 108 l0 112 38 -5 c20 -3 52 -9 70 -13 21 -4 32 -2 32 5 0 8 121 12 417 13
389 3 418 4 421 21 3 16 -22 17 -412 17 -377 0 -416 2 -424 17 -8 14 -15 15
-38 5 -16 -6 -46 -13 -66 -17 l-38 -6 0 116 c0 72 -4 115 -10 115 -6 0 -13 -6
-16 -13z"/>
<path d="M2450 406 l0 -116 -27 5 c-16 3 -45 11 -67 17 -33 10 -39 10 -48 -5
-8 -16 -44 -17 -423 -17 -408 0 -415 0 -415 -20 0 -20 7 -20 420 -20 301 0
420 -3 420 -11 0 -7 12 -9 35 -5 19 3 51 9 70 12 l35 6 0 -112 c0 -85 3 -111
13 -108 18 7 18 479 0 486 -10 3 -13 -24 -13 -112z"/>
<path d="M2894 507 c-2 -7 -3 -116 -2 -242 3 -197 5 -230 18 -230 12 0 16 20
18 108 3 119 5 122 78 95 26 -9 38 -9 56 0 14 7 82 13 173 14 126 3 150 5 150
18 0 12 -26 16 -158 20 -121 4 -160 8 -166 19 -7 11 -15 12 -38 3 -15 -6 -41
-12 -58 -14 l-30 -3 -2 98 c0 54 -4 104 -7 112 -7 18 -25 19 -32 2z"/>
<path d="M2657 373 c-4 -3 -7 -19 -7 -35 0 -26 -3 -28 -26 -22 -54 14 -112
-55 -99 -115 7 -33 49 -61 66 -44 6 6 18 9 25 6 22 -8 44 16 44 49 0 16 4 37
9 46 4 9 11 41 14 70 5 39 3 52 -7 52 -7 0 -16 -3 -19 -7z m-27 -122 c0 -32
-32 -66 -55 -58 -24 10 -18 53 11 76 31 25 44 20 44 -18z"/>
<path d="M1200 331 c0 -10 7 -24 15 -31 21 -18 19 -28 -15 -60 -31 -29 -39
-50 -19 -50 6 0 23 13 38 29 27 29 39 27 54 -11 6 -18 28 -24 40 -12 4 4 -2
19 -13 34 -26 36 -25 42 5 70 25 24 33 50 15 50 -5 0 -20 -11 -33 -24 l-25
-25 -21 25 c-25 29 -41 31 -41 5z"/>
<path d="M2735 308 c-4 -9 1 -27 9 -41 16 -23 15 -26 -18 -62 -35 -38 -39 -63
-8 -46 10 5 26 19 36 30 22 24 36 27 36 8 0 -8 9 -22 19 -31 28 -26 37 -2 15
40 l-18 33 27 29 c46 48 33 71 -14 26 l-28 -27 -25 29 c-21 25 -25 27 -31 12z"/>
</g>
</svg>
